<svg width="60" height="62" viewBox="0 0 60 62" fill="none" xmlns="http://www.w3.org/2000/svg">
<path d="M32.5625 8.81394C32.5625 5.84053 36.1785 4.37507 38.2486 6.50955L57.3227 26.1773C58.5789 27.4726 59.2815 29.2061 59.2815 31.0105V53.7758C59.2815 56.7492 55.6654 58.2146 53.5954 56.0802L34.5212 36.4124C33.265 35.1171 32.5625 33.3836 32.5625 31.5792V8.81394Z" fill="#9328FF"/>
<path d="M16.0039 8.16746C16.0039 5.19405 19.62 3.72858 21.69 5.86307L40.4827 25.2406C41.9194 26.722 42.7229 28.7046 42.7229 30.7683V53.1293C42.7229 56.1027 39.1068 57.5682 37.0368 55.4337L17.9626 35.7659C16.7064 34.4706 16.0039 32.7371 16.0039 30.9327V8.16746Z" fill="#4CBFFF"/>
<path d="M0 8.81394C0 5.84053 3.61605 4.37507 5.68611 6.50955L24.7602 26.1773C26.0164 27.4726 26.719 29.2061 26.719 31.0105V53.7758C26.719 56.7492 23.1029 58.2146 21.0329 56.0802L1.95873 36.4124C0.702531 35.1171 0 33.3836 0 31.5792V8.81394Z" fill="#4A3AFF"/>
</svg>
