<svg width="73" height="85" viewBox="0 0 73 85" fill="none" xmlns="http://www.w3.org/2000/svg">
<path d="M5 82.2909H57.3818C60.1432 82.2909 62.3818 80.0829 62.3818 77.3214V19.564C62.3818 18.0857 61.7276 16.7058 60.5949 15.7558L43.2029 1.16904C42.3026 0.413896 41.1666 0 39.9915 0H4.99043C2.22901 0 0 2.23857 0 4.99999V77.2909C0 80.0523 2.23858 82.2909 5 82.2909Z" fill="#C4D3FB"/>
<rect x="10.6182" y="35.8364" width="15.9273" height="6.63636" rx="3.31818" fill="white"/>
<rect x="10.6182" y="50.4363" width="15.9273" height="6.63636" rx="3.31818" fill="white"/>
<rect x="10.6182" y="63.709" width="15.9273" height="6.63636" rx="3.31818" fill="white"/>
<rect x="34.5093" y="35.8364" width="15.9273" height="6.63636" rx="3.31818" fill="white"/>
<rect x="34.5093" y="50.4363" width="15.9273" height="6.63636" rx="3.31818" fill="white"/>
<rect x="34.5093" y="63.709" width="15.9273" height="6.63636" rx="3.31818" fill="white"/>
<circle cx="57.0728" cy="69.0181" r="15.9273" fill="#4271ED"/>
<path d="M51.0996 72.0045V73.4977C51.0996 73.8937 51.2569 74.2735 51.537 74.5535C51.817 74.8335 52.1968 74.9909 52.5928 74.9909H61.5519C61.9479 74.9909 62.3277 74.8335 62.6077 74.5535C62.8877 74.2735 63.0451 73.8937 63.0451 73.4977V72.0045M60.0587 69.0181L57.0723 72.0045M57.0723 72.0045L54.086 69.0181M57.0723 72.0045V63.0454" stroke="white" stroke-width="1.5" stroke-linecap="round" stroke-linejoin="round"/>
</svg>
