<svg width="95" height="103" viewBox="0 0 95 103" fill="none" xmlns="http://www.w3.org/2000/svg">
<path d="M25.1269 102.435H87.0002C91.4185 102.435 95.0002 98.8833 95.0002 94.465L95.0002 25.2361C95.0002 22.8707 93.9534 20.6615 92.1411 19.1414L71.5488 1.87047C70.1082 0.662231 68.3125 0 66.4323 0H25.1142C20.6959 0 17.127 3.58171 17.127 7.99999L17.127 94.4352C17.127 98.8535 20.7087 102.435 25.1269 102.435Z" fill="#DEE7EF"/>
<rect x="29.4224" y="39.2305" width="53.0338" height="6.53842" rx="3.26921" fill="white"/>
<rect x="29.4224" y="51.5808" width="53.0338" height="6.53842" rx="3.26921" fill="white"/>
<rect x="29.4224" y="64.2944" width="53.0338" height="6.53842" rx="3.26921" fill="white"/>
<rect x="29.4224" y="77.0081" width="53.0338" height="6.53842" rx="3.26921" fill="white"/>
<circle cx="16.9222" cy="27.9222" r="16.9222" fill="#1F9073"/>
<path d="M10.5767 31.0949V32.6813C10.5767 33.1021 10.7438 33.5056 11.0413 33.8031C11.3388 34.1006 11.7424 34.2678 12.1631 34.2678H21.6818C22.1026 34.2678 22.5061 34.1006 22.8036 33.8031C23.1011 33.5056 23.2683 33.1021 23.2683 32.6813V31.0949M20.0954 27.922L16.9225 31.0949M16.9225 31.0949L13.7496 27.922M16.9225 31.0949V21.5762" stroke="white" stroke-width="1.5" stroke-linecap="round" stroke-linejoin="round"/>
</svg>
