<svg width="326" height="206" viewBox="0 0 326 206" fill="none" xmlns="http://www.w3.org/2000/svg">
<rect width="326" height="205.442" fill="#DEE5EC"/>
<path d="M75 206H253C262.941 206 271 197.965 271 188.024L271 126.142C271 120.617 268.463 115.429 264.117 112.016L205.32 65.8434C202.149 63.3534 198.238 62 194.207 62H74.9498C65.0086 62 57 70.0589 57 80L57 188C57 197.941 65.0589 206 75 206Z" fill="#FEFEFF"/>
<rect x="91" y="127" width="146" height="18" rx="9" fill="#DEE5EC"/>
<rect x="91" y="161" width="146" height="18" rx="9" fill="#DEE5EC"/>
<circle cx="56.9272" cy="115.073" r="22.0727" fill="#1F9073"/>
<path d="M48.6504 119.211V121.281C48.6504 121.829 48.8684 122.356 49.2565 122.744C49.6446 123.132 50.1709 123.35 50.7197 123.35H63.1356C63.6844 123.35 64.2108 123.132 64.5988 122.744C64.9869 122.356 65.2049 121.829 65.2049 121.281V119.211M61.0663 115.073L56.9277 119.211M56.9277 119.211L52.789 115.073M56.9277 119.211V106.795" stroke="white" stroke-width="1.5" stroke-linecap="round" stroke-linejoin="round"/>
</svg>
