<svg width="326" height="206" viewBox="0 0 326 206" fill="none" xmlns="http://www.w3.org/2000/svg">
<rect width="326" height="205.442" fill="#DEE5EC"/>
<path d="M75 206H253.382C263.323 206 271.382 197.956 271.382 188.015V95.6392C271.382 90.3171 269.027 85.3218 264.949 81.9017L205.699 32.2086C202.458 29.49 198.39 28 194.16 28H74.95C65.0089 28 57 36.0589 57 46V188C57 197.941 65.0589 206 75 206Z" fill="#F7F9FB"/>
<rect x="91" y="126" width="146" height="18" rx="9" fill="#DEE5EC"/>
<rect x="91" y="160" width="146" height="18" rx="9" fill="#DEE5EC"/>
<circle cx="56.9272" cy="81.0727" r="22.0727" fill="#4271ED"/>
<path d="M48.6504 85.2113V87.2806C48.6504 87.8295 48.8684 88.3558 49.2565 88.7439C49.6446 89.1319 50.1709 89.35 50.7197 89.35H63.1356C63.6844 89.35 64.2108 89.1319 64.5988 88.7439C64.9869 88.3558 65.2049 87.8295 65.2049 87.2806V85.2113M61.0663 81.0727L56.9277 85.2113M56.9277 85.2113L52.789 81.0727M56.9277 85.2113V72.7954" stroke="white" stroke-width="1.5" stroke-linecap="round" stroke-linejoin="round"/>
</svg>
