<svg width="326" height="206" viewBox="0 0 326 206" fill="none" xmlns="http://www.w3.org/2000/svg">
<rect width="326" height="205.442" fill="#DEE5EC"/>
<path d="M75 206H253.382C263.323 206 271.382 197.976 271.382 188.035L271.382 106.649C271.382 101.327 269.027 96.3218 264.949 92.9017L205.699 43.2086C202.458 40.49 198.39 39 194.16 39H74.9501C65.0089 39 57 47.0589 57 57L57 188C57 197.941 65.0589 206 75 206Z" fill="#FEFEFF"/>
<rect x="91" y="127" width="146" height="18" rx="9" fill="#DEE5EC"/>
<rect x="91" y="161" width="146" height="18" rx="9" fill="#DEE5EC"/>
<circle cx="56.9272" cy="92.0727" r="22.0727" fill="#1F9073"/>
<path d="M48.6504 96.2113V98.2806C48.6504 98.8295 48.8684 99.3558 49.2565 99.7439C49.6446 100.132 50.1709 100.35 50.7197 100.35H63.1356C63.6844 100.35 64.2108 100.132 64.5988 99.7439C64.9869 99.3558 65.2049 98.8295 65.2049 98.2806V96.2113M61.0663 92.0727L56.9277 96.2113M56.9277 96.2113L52.789 92.0727M56.9277 96.2113V83.7954" stroke="white" stroke-width="1.5" stroke-linecap="round" stroke-linejoin="round"/>
</svg>
